<svg width="93" height="24" viewBox="0 0 93 24" fill="none" xmlns="http://www.w3.org/2000/svg">
<style>
  #logo-letters {
    fill: #111827;
  }
  @media(prefers-color-scheme: dark) {
    #logo-letters {
      fill: #fff;
    }
  }
</style>
<rect x="8.00001" y="5.00001" width="8" height="5" rx="1" fill="#1E40AF"/>
<rect x="6" y="7" width="12" height="7" rx="1" fill="#1D4ED8"/>
<rect x="4" y="9" width="16" height="11" rx="1" fill="#2563EB"/>
<path id="logo-letters" d="M30.3089 9.18182V11.2273H24.3963V9.18182H30.3089ZM25.7386 6.82955H28.4616V15.983C28.4616 16.2344 28.5 16.4304 28.5767 16.571C28.6534 16.7074 28.7599 16.8033 28.8963 16.8587C29.0369 16.9141 29.1989 16.9418 29.3821 16.9418C29.5099 16.9418 29.6378 16.9311 29.7656 16.9098C29.8935 16.8842 29.9915 16.8651 30.0597 16.8523L30.4879 18.8786C30.3516 18.9212 30.1598 18.9702 29.9126 19.0256C29.6655 19.0852 29.3651 19.1215 29.0114 19.1342C28.3551 19.1598 27.7798 19.0724 27.2855 18.8722C26.7955 18.6719 26.4141 18.3608 26.1413 17.9389C25.8686 17.5171 25.7344 16.9844 25.7386 16.3409V6.82955ZM35.9552 19.1598C35.2094 19.1598 34.534 18.968 33.9289 18.5845C33.328 18.1967 32.8508 17.6278 32.4971 16.8778C32.1476 16.1236 31.9729 15.1989 31.9729 14.1037C31.9729 12.9787 32.154 12.0433 32.5163 11.2976C32.8785 10.5476 33.36 9.98722 33.9609 9.61648C34.566 9.24148 35.2286 9.05398 35.9488 9.05398C36.4985 9.05398 36.9566 9.14773 37.3231 9.33523C37.6938 9.51847 37.9921 9.74858 38.218 10.0256C38.4481 10.2983 38.6228 10.5668 38.7421 10.831H38.8252V9.18182H41.5418V19H38.8572V17.4276H38.7421C38.6143 17.7003 38.4332 17.9709 38.1988 18.2394C37.9687 18.5036 37.6682 18.723 37.2975 18.8977C36.931 19.0724 36.4836 19.1598 35.9552 19.1598ZM36.8181 16.9929C37.257 16.9929 37.6278 16.8736 37.9303 16.6349C38.2371 16.3921 38.4715 16.0533 38.6334 15.6186C38.7996 15.184 38.8827 14.6747 38.8827 14.0909C38.8827 13.5071 38.8018 13 38.6398 12.5696C38.4779 12.1392 38.2435 11.8068 37.9367 11.5724C37.6299 11.3381 37.257 11.2209 36.8181 11.2209C36.3707 11.2209 35.9935 11.3423 35.6867 11.5852C35.3799 11.8281 35.1476 12.1648 34.99 12.5952C34.8323 13.0256 34.7535 13.5242 34.7535 14.0909C34.7535 14.6619 34.8323 15.1669 34.99 15.6058C35.1519 16.0405 35.3841 16.3814 35.6867 16.6286C35.9935 16.8715 36.3707 16.9929 36.8181 16.9929ZM44.1406 19V9.18182H46.8636V19H44.1406ZM45.5085 7.9162C45.1037 7.9162 44.7564 7.78196 44.4666 7.5135C44.1811 7.24077 44.0384 6.91478 44.0384 6.53552C44.0384 6.16052 44.1811 5.83878 44.4666 5.57032C44.7564 5.29759 45.1037 5.16123 45.5085 5.16123C45.9134 5.16123 46.2585 5.29759 46.544 5.57032C46.8338 5.83878 46.9787 6.16052 46.9787 6.53552C46.9787 6.91478 46.8338 7.24077 46.544 7.5135C46.2585 7.78196 45.9134 7.9162 45.5085 7.9162ZM52.1279 5.9091V19H49.4049V5.9091H52.1279ZM54.6692 22.6818V9.18182H57.3539V10.831H57.4753C57.5947 10.5668 57.7672 10.2983 57.9931 10.0256C58.2232 9.74858 58.5215 9.51847 58.888 9.33523C59.2587 9.14773 59.7189 9.05398 60.2687 9.05398C60.9846 9.05398 61.6451 9.24148 62.2502 9.61648C62.8553 9.98722 63.339 10.5476 63.7012 11.2976C64.0634 12.0433 64.2445 12.9787 64.2445 14.1037C64.2445 15.1989 64.0677 16.1236 63.714 16.8778C63.3645 17.6278 62.8873 18.1967 62.2822 18.5845C61.6813 18.968 61.008 19.1598 60.2623 19.1598C59.7339 19.1598 59.2843 19.0724 58.9135 18.8977C58.5471 18.723 58.2466 18.5036 58.0123 18.2394C57.7779 17.9709 57.5989 17.7003 57.4753 17.4276H57.3922V22.6818H54.6692ZM57.3347 14.0909C57.3347 14.6747 57.4157 15.184 57.5776 15.6186C57.7395 16.0533 57.9739 16.3921 58.2807 16.6349C58.5876 16.8736 58.9604 16.9929 59.3993 16.9929C59.8425 16.9929 60.2175 16.8715 60.5243 16.6286C60.8312 16.3814 61.0634 16.0405 61.2211 15.6058C61.383 15.1669 61.464 14.6619 61.464 14.0909C61.464 13.5242 61.3851 13.0256 61.2275 12.5952C61.0698 12.1648 60.8376 11.8281 60.5307 11.5852C60.2239 11.3423 59.8468 11.2209 59.3993 11.2209C58.9562 11.2209 58.5812 11.3381 58.2743 11.5724C57.9718 11.8068 57.7395 12.1392 57.5776 12.5696C57.4157 13 57.3347 13.5071 57.3347 14.0909ZM66.4199 19V9.18182H69.1429V19H66.4199ZM67.7877 7.9162C67.3829 7.9162 67.0356 7.78196 66.7458 7.5135C66.4603 7.24077 66.3176 6.91478 66.3176 6.53552C66.3176 6.16052 66.4603 5.83878 66.7458 5.57032C67.0356 5.29759 67.3829 5.16123 67.7877 5.16123C68.1926 5.16123 68.5377 5.29759 68.8233 5.57032C69.113 5.83878 69.2579 6.16052 69.2579 6.53552C69.2579 6.91478 69.113 7.24077 68.8233 7.5135C68.5377 7.78196 68.1926 7.9162 67.7877 7.9162ZM74.4072 13.3239V19H71.6841V9.18182H74.2793V10.9141H74.3944C74.6117 10.343 74.9761 9.89134 75.4874 9.55895C75.9988 9.22231 76.6188 9.05398 77.3475 9.05398C78.0293 9.05398 78.6238 9.20313 79.1309 9.50143C79.638 9.79972 80.0322 10.2259 80.3134 10.7798C80.5947 11.3295 80.7353 11.9858 80.7353 12.7486V19H78.0123V13.2344C78.0165 12.6335 77.8631 12.1648 77.552 11.8281C77.241 11.4872 76.8127 11.3168 76.2672 11.3168C75.9008 11.3168 75.5769 11.3956 75.2957 11.5533C75.0187 11.7109 74.8013 11.9411 74.6437 12.2436C74.4903 12.5419 74.4114 12.902 74.4072 13.3239ZM87.7158 19.1918C86.7059 19.1918 85.8366 18.9872 85.1079 18.5781C84.3835 18.1648 83.8252 17.581 83.4332 16.8267C83.0411 16.0682 82.8451 15.1712 82.8451 14.1357C82.8451 13.1257 83.0411 12.2394 83.4332 11.4766C83.8252 10.7138 84.3771 10.1193 85.0887 9.69319C85.8046 9.26705 86.6441 9.05398 87.6072 9.05398C88.2549 9.05398 88.8579 9.15839 89.4161 9.36719C89.9786 9.57174 90.4687 9.88069 90.8863 10.294C91.3082 10.7074 91.6363 11.2273 91.8707 11.8537C92.1051 12.4759 92.2222 13.2046 92.2222 14.0398V14.7876H83.9318V13.1001H89.659C89.659 12.7081 89.5738 12.3608 89.4033 12.0582C89.2329 11.7557 88.9964 11.5192 88.6938 11.3487C88.3955 11.174 88.0482 11.0867 87.6519 11.0867C87.2386 11.0867 86.8721 11.1825 86.5525 11.3743C86.2372 11.5618 85.99 11.8153 85.811 12.1349C85.632 12.4503 85.5404 12.8019 85.5362 13.1896V14.794C85.5362 15.2798 85.6256 15.6996 85.8046 16.0533C85.9879 16.407 86.2457 16.6797 86.5781 16.8715C86.9104 17.0632 87.3046 17.1591 87.7606 17.1591C88.0631 17.1591 88.3401 17.1165 88.5916 17.0313C88.843 16.946 89.0582 16.8182 89.2372 16.6477C89.4161 16.4773 89.5525 16.2685 89.6462 16.0213L92.1647 16.1875C92.0369 16.7926 91.7748 17.321 91.3785 17.7727C90.9864 18.2202 90.4793 18.5696 89.8572 18.821C89.2393 19.0682 88.5255 19.1918 87.7158 19.1918Z" />
</svg>
